<?xml version="1.0" encoding="UTF-8"?>
<svg version="1.1" viewBox="0 0 1054 2048" width="1280" height="1280" xmlns="http://www.w3.org/2000/svg">
<path transform="translate(0,547)" d="m0 0h420l1 4-1 1075 199-1v-1078h435v228h-179l1 25v826l135-1 43 1v227h-1054v-227l14-1h148l1-850h-163z" fill="#484848"/>
<path transform="translate(272,119)" d="m0 0h17l20 2 25 6 15 6 17 9 12 9 10 9 13 13 11 14 10 16 8 19 4 13 2 13 1 13v27l-3 23-4 13-11 24-8 12-11 14-17 17-13 10-16 10-15 7-20 6-18 3-13 1h-12l-22-2-19-4-19-7-16-9-12-9-15-13-8-8-10-13-7-11-6-10-9-22-5-18-2-11v-39l6-25 11-25 8-14 8-11 11-12 3-4h2v-2l8-7 13-10 14-8 16-7 15-4 19-3z" fill="#484848"/>
<path transform="translate(748,119)" d="m0 0h18l19 2 26 6 15 6 15 8 12 9 10 9 11 11 13 17 8 13 9 19 6 21 2 15v37l-3 17-6 20-8 16-9 15-11 14-8 9h-2v2l-8 7-13 10-13 8-16 8-21 6-18 3-22 1-24-2-19-4-17-6-15-8-14-10-11-9-13-12-11-14-10-16-8-16-5-13-3-15-2-15v-32l3-22 6-18 11-22 11-16 15-16 11-10 17-12 12-7 21-8 20-4z" fill="#484848"/>
<path transform="translate(0,547)" d="m0 0h420l1 4-1 1075 199-1v-1078h435v3l-7 1h-425v1075l-4 2h-196l-5-1v-1066l1-10h-418z" fill="#FEFEFE"/>
<path transform="translate(887,772)" d="m0 0h167v3h-179l1 25v826l135-1 43 1v2h-178l-3-2v-850l3-3z" fill="#FEFEFE"/>
<path transform="translate(0,772)" d="m0 0h160l4 2 1 2 1 24v824l-2 3-4 1h-160v-2l14-1h148l1-850h-163z" fill="#FEFEFE"/>
<path transform="translate(272,119)" d="m0 0h17l20 2 25 6 15 6 17 9 12 9 10 9 13 13 11 14 10 16 8 19 4 13 2 13 1 13v27l-3 23-4 13-11 24-8 12-11 14-17 17-13 10-16 10-15 7-20 6-18 3-13 1h-12l-22-2-19-4-19-7-16-9-12-9-15-13-8-8-10-13-7-11-6-10-9-22-5-18-2-11v-39l6-25 11-25 8-14 8-11 11-12 3-4h2v-2l8-7 13-10 14-8 16-7 15-4 19-3h9v1l-19 3-24 7-23 11-17 12-15 14-11 13-9 14-10 19-7 21-4 22v33l5 25 7 20 10 18 9 13 13 15 10 9 13 10 15 9 19 8 21 5 21 3h18l22-3 17-4 21-9 14-8 12-9 10-9 13-13 13-18 10-19 7-21 3-18 1-13v-12l-2-25-4-18-6-15-8-16-10-14-14-15-7-7-13-10-15-9-19-9-20-6-17-3-27-2z" fill="#FEFEFE"/>
<path transform="translate(748,119)" d="m0 0h18l19 2 26 6 15 6 15 8 12 9 10 9 11 11 13 17 8 13 9 19 6 21 2 15v37l-3 17-6 20-8 16-9 15-11 14-8 9h-2v2l-8 7-13 10-13 8-16 8-21 6-18 3-22 1-24-2-19-4-17-6-15-8-14-10-11-9-13-12-11-14-10-16-8-16-5-13-3-15-2-15v-32l3-22 6-18 11-22 11-16 15-16 11-10 17-12 12-7 21-8 20-4 7-1h9v1l-18 3-24 7-23 11-12 8-16 13-11 11-13 17-13 25-5 15-4 22-1 7v27l4 24 5 17 8 17 12 18 9 11 15 15 16 12 11 7 25 10 22 5 17 2h16l24-3 19-5 17-7 14-8 13-10 10-9 12-12 11-15 10-17 5-11 6-19 2-11 1-12v-27l-2-19-7-23-8-16-8-13-9-12-11-12-7-7-15-11-14-8-18-8-18-5-17-3-27-2z" fill="#FEFEFE"/>
</svg>
